<?xml version="1.0" standalone="no"?>
<!DOCTYPE svg PUBLIC "-//W3C//DTD SVG 20010904//EN"
 "http://www.w3.org/TR/2001/REC-SVG-20010904/DTD/svg10.dtd">
<svg version="1.0" xmlns="http://www.w3.org/2000/svg"
 width="300.000000pt" height="300.000000pt" viewBox="0 0 300.000000 300.000000"
 preserveAspectRatio="xMidYMid meet">
<metadata>
Created by potrace 1.14, written by Peter Selinger 2001-2017
</metadata>
<g transform="translate(0.000000,300.000000) scale(0.100000,-0.100000)"
fill="#000000" stroke="none">
<path d="M1261 2944 c-50 -178 -36 -353 34 -449 l23 -30 -97 -28 c-188 -54
-361 -156 -486 -285 -68 -70 -145 -168 -167 -212 -6 -14 -17 -32 -23 -40 -30
-40 -98 -234 -108 -310 -18 -123 -20 -151 -19 -205 0 -33 4 -82 7 -110 4 -27
8 -61 10 -75 32 -260 221 -554 463 -719 270 -185 640 -236 947 -132 86 30 255
110 255 121 0 4 12 12 26 19 32 14 126 92 119 99 -2 3 -10 0 -18 -6 -25 -21
-92 -24 -157 -8 -66 17 -110 37 -275 125 -55 29 -145 68 -199 85 -107 35 -106
44 4 44 70 0 131 -14 178 -40 17 -10 32 -15 32 -13 0 11 -75 72 -134 108 -110
68 -165 79 -387 82 -203 3 -266 14 -352 57 -49 24 -41 37 8 14 74 -35 155 -45
270 -32 75 9 103 13 135 21 56 13 98 18 165 18 79 0 120 -7 141 -24 8 -6 14
-7 14 -2 0 13 -135 115 -200 151 -30 16 -96 46 -146 66 -118 46 -171 77 -220
124 -44 43 -76 82 -69 82 3 0 -1 13 -9 29 -24 45 -26 124 -5 170 20 45 60 74
133 96 45 14 52 13 95 -6 64 -28 125 -68 283 -186 153 -113 236 -163 318 -189
65 -20 176 -26 228 -12 62 16 142 51 143 62 0 6 3 27 6 46 8 48 8 234 0 295
-10 73 -29 158 -46 200 -85 213 -222 382 -397 490 -179 110 -309 240 -440 442
-74 114 -71 111 -83 67z m812 -1092 c10 -9 17 -29 17 -48 0 -63 -83 -86 -122
-34 -15 21 -17 31 -8 56 18 52 70 64 113 26z"/>
<path d="M1580 2768 c0 -5 27 -44 59 -87 59 -78 60 -78 123 -91 56 -11 125
-30 168 -47 8 -3 20 -7 25 -8 40 -9 197 -97 272 -152 279 -204 450 -499 499
-861 7 -50 7 -215 0 -277 -20 -186 -108 -412 -223 -574 -43 -60 -187 -212
-239 -252 -36 -27 -143 -99 -148 -99 -3 0 -27 -13 -53 -28 -93 -55 -277 -113
-403 -128 -143 -18 -309 -7 -475 30 -100 22 -262 96 -378 173 -69 46 -266 233
-297 282 -8 13 -24 36 -36 50 -29 37 -100 177 -130 258 -166 440 -63 941 263
1279 156 162 296 251 515 327 14 5 15 12 6 49 -6 24 -11 55 -12 70 -1 15 -5
30 -8 33 -12 13 -312 -116 -338 -144 -3 -4 -17 -12 -32 -20 -16 -8 -28 -18
-28 -23 0 -4 -6 -8 -14 -8 -8 0 -16 -3 -18 -7 -1 -5 -25 -26 -53 -48 -49 -40
-121 -110 -181 -176 -98 -110 -229 -341 -259 -459 -1 -3 -5 -12 -8 -20 -13
-31 -46 -177 -53 -235 -10 -75 -10 -301 0 -375 18 -143 81 -336 152 -468 102
-189 299 -402 474 -513 110 -70 277 -142 403 -175 68 -18 74 -19 162 -33 63
-10 346 -7 405 4 168 31 389 114 515 194 82 52 226 174 288 244 157 177 292
427 322 597 3 18 8 37 11 41 5 8 13 65 18 119 1 14 4 30 7 35 7 13 4 271 -4
310 -3 17 -9 50 -12 75 -36 231 -161 494 -320 669 -62 69 -74 81 -122 123 -89
78 -105 89 -172 133 -127 82 -265 141 -420 180 -108 28 -251 46 -251 33z"/>
</g>
</svg>
